<?xml version="1.0" ?><svg data-name="Layer 1" id="Layer_1" viewBox="0 0 500 500" xmlns="http://www.w3.org/2000/svg"><defs><style>.cls-1{fill:#567a91;}.cls-2{fill:#6895ad;}.cls-3{fill:#fff;}</style></defs><title/><circle class="cls-1" cx="250" cy="250" r="250"/><circle class="cls-2" cx="250" cy="250" r="203.65"/><path class="cls-3" d="M388.76,177.14c-24.31-44.69-61.58-72.78-112-81.49-49.61-8.58-93.78,4.48-131.44,37.83-26,23-42.37,52-49.09,86.2-1.29,6.59-1.78,13.33-2.65,20-.13,1-.33,2-.49,3v16.55c.8,5.94,1.36,11.93,2.44,17.81,8.1,44,30.89,78.51,67.79,103.63A150.1,150.1,0,0,0,234,406.09c32.37,3.2,63-2.9,91.52-18.71,30.44-16.88,52.85-41.33,67.4-72.93a152.06,152.06,0,0,0,12.79-46.39C409.47,236,404.13,205.4,388.76,177.14Zm-9.84,8,3,6.42-3.81.3v-6.54ZM350,160.85c4.29-1.31,6.07-4,4.7-8.72l.87,0,6.24,7c-1.1,3-2.62,5.18-6.37,4.49-1.58-.29-3.25,0-4.87-.14a2,2,0,0,1-1.48-1.1A1.81,1.81,0,0,1,350,160.85Zm-184.15-20,7.94-1.5c.52,4.36-.71,5-7.87,4.3a7.31,7.31,0,0,1-.26-1.31A9.36,9.36,0,0,1,165.83,140.82Zm8.45,7.23c-.31.82-.56,2.31-.94,2.34-2.36.22-4.75.11-7.13.11l-.14-1.29,7.46-1.91Zm198.52,59.86c-4.66-3.71-5.35-3.71-11.38-2.24l-.28,4.27-17.51-5.32v-8.11c-7,1.38-14-.08-20.51,3.5-2.2,1.22-5.68-.15-8.34.55a29.14,29.14,0,0,0-9.14,4.25c-.92.65-.51,3.45-.39,5.25.16,2.64-1.09,3.93-4.24,5.41a27.28,27.28,0,0,0-8.35,6.25c-1.28,1.37-3.72,1.76-2.83,4.48s.66,2.63,3.79,3.16c-.24,1.89.46,4.09-2.12,5.08a1,1,0,0,0-.44.38c-1,1.64-.07,12.35,1.25,13.86,3.29,3.77,6.8,7.36,9.81,11.34,2.4,3.19,5.45,2.62,8.78,2.35s6.43-.57,9.61-1.07a4.28,4.28,0,0,0,1.79-.61c4.22-2.95,6.78-2.86,10.94.49a5.32,5.32,0,0,0,2.46.94c2.3.36,4.62.57,7.3.88-.29,3.36-.69,6.56-.79,9.78a9,9,0,0,0,.88,4.29c2.47,4.69,5.26,9.21,7.7,13.91a5.22,5.22,0,0,1,.07,3.82,69.69,69.69,0,0,1-3.31,6.54,6.55,6.55,0,0,0,1.32,8.28,6,6,0,0,1,2.3,5.61c-.74,5.43.39,10.24,4.37,14.28a5.58,5.58,0,0,1,1,3.35c.15,2.43,0,4.87,0,7.41l4.18.33c-38.7,50.17-118.66,73.25-185.68,31.83-70.21-43.4-81.23-125.56-57.28-178.07a17.22,17.22,0,0,1,0,2.25c-.6,3.57.45,6,4.2,7.13.79.23,1.3,1.7,1.75,2.68a3.32,3.32,0,0,1,0,1.82c-1.11,6.25,1.53,11.39,5.08,16.08,1,1.26,3.15,1.58,4.77,2.34l1.1-.84c-.49-1.69-.59-3.66-1.55-5-3-4.29-5.2-8.73-4.7-14.37l2.34-.21c.26.29.5.43.51.58.21,6.93,4,12.23,7.93,17.46,1,1.33,1.42,2.44.45,4.11a4.83,4.83,0,0,0,.09,3.45c2.42,7.34,9.22,7.35,15.1,8.67,1.31.29,2.89-.79,4.37-1.09a5.11,5.11,0,0,1,1.85.43l-.26,3.05c.35.22.59.5.85.52a18.15,18.15,0,0,1,14.81,8.81c1.71,2.67,4.12,3.53,7.2,3.65,6.91.26,7,.37,7.39,7.24a4.28,4.28,0,0,1-1.64,3.37c-4.2,2.33-5.45,5.59-6.15,10.42-.82,5.7,1,9.35,4.38,13.27,2.65,3.08,6.1,5.85,6.36,10.51,0,.51,1,1,1.65,1.42,3.54,2.12,7.17,4.11,10.62,6.37.69.46,1,1.92,1,2.93.09,6.54.12,13.08,0,19.61,0,2,.35,3.42,3,3.51-.53,3.2-1.17,6.16-1.43,9.16-.12,1.35.09,3.19.92,4.09a11.7,11.7,0,0,1,3,11.47c-.74,3.1.23,5.85,1.74,8.69a44,44,0,0,0,11.08,13.61c3.17,2.6,6.58,1.35,9.9,1.54.16,0,1-2.52.57-3.13-4.17-5.66-4.23-5.61-3.88-12.18,0-.4,0-.81,0-.78L226,364l4.28-5.88a8.56,8.56,0,0,0-.86-1c-1.06-.71-2.12-1.41-3.19-2.11a40.16,40.16,0,0,1,3.73-1.75c5.12-1.81,10.39-3.05,13.1-8.84,1.57-3.34,4.3-6.19,6.76-9,2-2.28,2.75-4.44,1.65-7.43-.93-2.53-1.85-5.41.53-7.75a7.38,7.38,0,0,1,3.37-1.79c2.48-.57,5.22-.37,7.52-1.32,3.1-1.28,4.5-3.93,4.46-7.56a58.52,58.52,0,0,1,1.11-10.64,12,12,0,0,1,2.14-4.55c2.19-3.13,5.29-5.76,4.92-10.53-4.06-.42-6.57-3-8.44-6.64-.37-.72-2.07-1.11-3.13-1.07-6.18.27-12.15-.36-17.83-3.08a3.7,3.7,0,0,1-2.47-3.27,57,57,0,0,0-2.31-8.38,3.17,3.17,0,0,0-4-2.41c-.39.07-.83-.07-1.22,0-4,.79-6.51-.92-8.1-4.56a9,9,0,0,0-6.43-5.58c-2.06,3.23-8.85,3.48-10.94.14-1.67-2.67-4.39-2.11-6.67-3-2.94-1.13-4.9-.1-6.31,2.4-2.73,4.83-6.57,5.49-11.77,4.25-3.41-.81-4.87-1.75-4.61-5.37.19-2.71-.35-5.47-.58-8.41l-7.9-1.49c.35-3.27,4.56-5.76,1.68-9.74q-4.41,2.93-8.82,5.85c-1.77,1.17-7.7,1.44-8.67,0-1.5-2.2-3.25-4.56-1.87-7.58s2.16-7,4.47-9.23a20.19,20.19,0,0,1,10.07-5.12c4.94-.85,10.14-.21,15.75-.21-1.05,4.69,1.45,6.74,5.87,7.56a15,15,0,0,0,0-3.18c-1.11-4.93,1.6-7.83,5.23-10.3,1.43-1,2.85-2,4.34-2.86,2.15-1.28,4.19-2.54,4-5.57,0-.58.56-1.29,1-1.79,4.31-4.6,8.52-9.23,14.43-12.07,2.43-1.16,4.19-3.83,6.08-6s3.67-2.69,5.85-.34l2.25-2.67a12.25,12.25,0,0,1-3-.91c-.7-.44-1.61-1.38-1.55-2s1.09-2.07,1.66-2c1.49,0,3.32.28,4.37,1.18,1.9,1.64,5.79,1.89,7.68.1.55-.52,1.56-.56,2.36-.82-.11,1,.12,2.23-.39,2.89-2,2.54-1.79,3.38,1.31,4.35,2.29.71,4.61,1.36,6.89,2,1.29-2.86.45-4.34-2.12-5.07a4.12,4.12,0,0,1-1.36-.71c-.77-.59-1.5-1.24-2.24-1.87a16,16,0,0,1,2.62-1.67c2.53-1,3.76-5.4,1.54-6.32-4.73-1.94-5-5.58-4.72-9.69a3.69,3.69,0,0,0-.12-.91c0-.08-.11-.14-.4-.47-1.43.67-2.94,1.46-4.51,2.09s-3.14,1.06-5.24,1.76l.56-6.88c-3.21-.78-6.23-1.63-9.31-2.23-1.75-.34-4.93,2.54-5,4.4a33.51,33.51,0,0,0,0,5.2c.25,2.31-.43,3.74-2.86,4.07-3.53.48-5.92,2.28-6.92,5.85-.55,1.94-1.89,2.77-4.17,2.07V161.1a40.26,40.26,0,0,1-5.17-.89,15.83,15.83,0,0,1-4.91-2.2,4.36,4.36,0,0,1,.57-7.28c5.13-2.82,10.31-5.56,15.84-8.53l1.46,5.36,6.63-3.63-1.11-2c2.65-1.75,4.72-3.69,7.18-4.6a28.94,28.94,0,0,1,9.41-1.81c1.49,0,3,1.76,5.06,3.08l-10.92,6.06,13.53,3.25a9.68,9.68,0,0,0,1-2c.46-2.2,1.76-3,3.93-2.66,3.08.55,4.43-1.07,4.94-4l-4-1.23c1.62-4.89-1.9-5.88-5.21-7.47-5-2.38-9.89-4.37-15.46-2.65a43.18,43.18,0,0,0-6.43,2.62c-.49.24-.73,1.36-.75,2.08,0,1.5.12,3,.25,5.38-2.23-.88-4.8-1.08-5.54-2.34-2.16-3.71,2.52-4.55,4-7.64a80.76,80.76,0,0,0-9.88.14c-1.18.15-2.17,1.83-3.75,3.27l3.79,1.09c.54,2.51-.33,3.74-3,3.74-1.63,0-3.47-.26-4.3,2-.18.48-1.79.56-2.75.6-1.92.09-3.84,0-6,0l-.6-4.87c5,.73,9.07-.72,11.61-5.27-1.36-1.52-2.57-1.42-4.14.17-3.23,3.28-7.62,2.83-10.27-.83-1.93-2.66-8-3.93-10.82-2.08a32.66,32.66,0,0,0-6.62,5.66h3.8c3.6,0,4.08.8,2.51,3.87,2.56,1.69,7-1.79,8.7,3.39H183l.26-.94c-5-3-10.42-4.91-16.79-4.62,45.41-35.09,122.41-40.76,178.72,9-1.6,1.24-3,2.46-4.57,3.5-1.91,1.28-4.16,2.13-5.83,3.64-1.92,1.74-.79,3.75,1.48,5,1.63.87,2.61,3,4.2,4.88l5.23-1.81,1,6.41c-3,0-5.91.06-8.78,0a5.17,5.17,0,0,0-5.08,3.2,9.23,9.23,0,0,1-8.61,5.62c-.86,0-2,1.35-2.43,2.33a15.37,15.37,0,0,0-.67,4l3,1.21-.76,3.3c-4,0-7.75,0-11.53,0-3.35,0-3.88,2.59-3.92,5.08,0,2,0,4.31,1,6,.79,1.4,2.86,2.13,4.43,3,.47.26,1.2.06,1.81.06,4.69,0,9.66.87,11.5-5.5.5-1.73,2.39-3,3.41-4.66,1.39-2.22,3-3.47,5.74-2.43a3.28,3.28,0,0,0,2.38-.74,32.45,32.45,0,0,0,3.07-2.71c2.33,5.56,8.29,6.58,12,10.5-.7,3.16-3.55,1-5.3,2,.54,2.53,2.52,3.06,4.56,2.77s3.86-1.16,3.41-4c-.14-.91.56-1.95.94-3.15-3.23-3.26-10-3.45-9.63-10.53,1.91.1,4.3-.45,5.84.45,2.58,1.51,4.65,3.92,6.87,6,.3.29.27,1,.34,1.46.74,5.3,1.28,6.23,5.67,9.66,1.87-3.06.34-8.17,5.94-9.28.15,1.13.34,2.28.45,3.43.41,4.58,3.06,7.21,7.58,6.76a5,5,0,0,1,5.37,4A78.81,78.81,0,0,0,388,210C382.58,209.22,377.51,211.65,372.81,207.91ZM178.68,164l7.14-1.28c-.1,3.95-.92,6.18-4.66,6.25Zm19.4,19.56v-4.09h4.21C203.05,182.48,202,183.5,198.08,183.53Zm-2.84,6.15c.6-3.8,3.55-3.9,6.12-4.69C202.2,189.2,200.84,190.26,195.23,189.68Zm3.27-11.33-11.27-.61c1.09-3.38,4.9-5.1,9-4.2C198.14,173.94,199.26,175.53,198.51,178.34Zm-3.66,1.34-5.6,7.83c-2.61-.23-2.86-1.6-2.31-3.6C187.83,180.65,190.41,179.09,194.85,179.69Zm9.7,2.92c6.18,1.45,5.69,1.74,5,4C205.43,187.82,203.09,185.89,204.55,182.61Z"/><path class="cls-3" d="M250.43,413.16q-8.42,0-17-.85a156.61,156.61,0,0,1-73.58-26.5c-38.38-26.12-62.07-62.35-70.42-107.65-.76-4.14-1.27-8.32-1.78-12.5-.23-1.87-.45-3.74-.71-5.61l-.05-.84.26-18.57c.1-.59.21-1.18.29-1.77.27-2.11.51-4.22.75-6.34.51-4.59,1-9.33,2-14.06,7-35.69,24.2-65.87,51.08-89.67,39.44-34.94,85.41-48.15,136.65-39.31,51.52,8.91,90.69,37.4,116.4,84.67h0c15.68,28.83,21.64,60.67,17.7,94.62a159.17,159.17,0,0,1-13.32,48.28c-15.16,32.92-38.72,58.42-70,75.79A159.16,159.16,0,0,1,250.43,413.16ZM99.37,258.8c.24,1.78.45,3.56.67,5.35.48,3.93,1,7.86,1.67,11.74,7.72,41.9,29.64,75.41,65.16,99.59a144.28,144.28,0,0,0,67.77,24.38c31.28,3.09,60.82-3,87.88-18,28.95-16.05,50.74-39.64,64.76-70.08a146.73,146.73,0,0,0,12.26-44.49c2.87-24.78.06-48.3-8.38-70.18l-.92.07a11.46,11.46,0,0,1,1.17,3.17,31.75,31.75,0,0,0,1.42,4.41c.36,1,.74,2,1.12,3.14l3.23,9.55-10-1.35a22.18,22.18,0,0,0-4.21,0c-3.85.23-9.08.58-14.06-3.38-.65-.52-1.19-.93-1.61-1.23l-.44,6.65-29.48-8.95v-5.8l-.95,0c-4,.2-7.38.38-10.29,2s-5.79,1.35-7.95,1.2a10.78,10.78,0,0,0-1.86-.06,23,23,0,0,0-4.93,2,.1.1,0,0,1,0,0l.08,1.07c.46,7.56-5.56,10.39-7.83,11.45a19.36,19.36,0,0,0-4.36,2.85l1.28.22-.77,6c0,1.87-.1,5.59-2.94,8.22a37.58,37.58,0,0,0,.75,6.88c.81.91,1.62,1.81,2.44,2.72,2.37,2.61,4.81,5.32,7,8.28a9.74,9.74,0,0,0,2.46,0l.81-.07c3-.25,6-.52,9-1,6.1-4,11.5-3.75,17.37.79,1.58.24,3,.4,4.6.58l8.45,1-.8,9c-.21,2.18-.42,4.3-.49,6.43a3.21,3.21,0,0,0,.17,1.2c1.14,2.15,2.36,4.29,3.57,6.43,1.41,2.48,2.83,5,4.14,7.5a11.41,11.41,0,0,1,.37,8.92,42.31,42.31,0,0,1-2.54,5.21c-.35.64-.71,1.29-1,1.94a1.57,1.57,0,0,0-.22.67c3.61,3.29,5,7,4.47,11.24-.53,3.87.28,6.66,2.63,9.05,1.7,1.72,2.62,4.11,2.83,7.33,0,.68.07,1.35.08,2l9.9.79-7,9.12c-39.33,51-122.61,77.39-193.91,33.33-70.56-43.62-85.75-128.81-59.68-186l9.42-20.67a148.76,148.76,0,0,0-19.21,49.76c-.83,4.21-1.31,8.49-1.81,13-.25,2.2-.49,4.39-.78,6.58-.1.78-.24,1.56-.37,2.33l-.07.38ZM240.46,387.33c43.19,3,84.39-15.41,109.95-43.93l0-5.38c0-1.6,0-3.17-.05-4.73,0-.06,0-.11,0-.15-4.54-5-6.34-11.28-5.37-18.58l-.31-.29A12.74,12.74,0,0,1,342,298.54c.39-.78.81-1.53,1.23-2.29a34.16,34.16,0,0,0,1.62-3.16c-1.12-2.11-2.31-4.2-3.49-6.28-1.28-2.26-2.57-4.51-3.78-6.8a15.35,15.35,0,0,1-1.6-7.4c0-1.36.13-2.72.25-4.09l-1.46-.21a11.27,11.27,0,0,1-5.44-2.26,8,8,0,0,0-1.84-1.22c0,.05-.54.26-1.59,1a10.06,10.06,0,0,1-4.46,1.67c-3.28.52-6.65.84-10,1.12l-.71.06c-3.47.31-9.26.84-13.57-4.87-1.9-2.52-4.06-4.9-6.34-7.43-1.07-1.18-2.14-2.37-3.19-3.57-3-3.48-4.24-16.53-2-20.9a12.78,12.78,0,0,1-1.54-3.31c-1.1-3.36-1.18-7.57,3.86-11a35.44,35.44,0,0,1,10.48-7.75l.58-.29c-.23-2.91-.54-7.24,3.08-9.81.62-.43,1.26-.85,1.92-1.25-.19-.26-.36-.54-.53-.82-1.65-2.92-1.83-6.26-1.79-9.14.18-10.56,8.43-11.21,10.08-11.24,1.11,0,2.21,0,3.33,0v-.12a13.75,13.75,0,0,1,1.08-4.76c1.23-2.68,4-5.85,7.93-6,1.67-.05,2.38-.53,3.18-2.14a12.06,12.06,0,0,1,4.76-5.2,9.64,9.64,0,0,1-4.37-6.73,8.73,8.73,0,0,1,3-7.56,21.71,21.71,0,0,1,4.35-2.94c-43.44-34.33-96.9-35.88-137.1-19.35a10.87,10.87,0,0,1,1.72,1.86,1.62,1.62,0,0,0,.48.47c2.38-2.48,4.77-3.54,7.16-3.47a8.08,8.08,0,0,1,3.85,1.09,7.76,7.76,0,0,1,2.06-.56,55.81,55.81,0,0,1,7.83-.23c.93,0,1.88,0,2.86,0h7.27c7.46-2.07,13.9.55,19.36,3.17l.92.43c2,.9,6.83,3.14,8,8.11l4.72,1.46-.95,5.43a11.11,11.11,0,0,1-4.35,7.56,9.64,9.64,0,0,1-5.44,1.71l-.29.53.5,1.5a8.67,8.67,0,0,1,.23,2.47c-.14,2.34,0,3,.13,3.13h0a3,3,0,0,0,.74.4,8.22,8.22,0,0,1,5,7.87,11,11,0,0,1-1.4,5.23,8.47,8.47,0,0,1,1.59,2.32c1.19,2.55,1.07,5.43-.34,8.56l-2.24,5-7.42-2.17c-1.59-.46-3.2-.93-4.79-1.42-1.29-.4-4.47-1.39-6.07-4.31l-6.51,7.72-2.91-3.14a20,20,0,0,1-6.53,5.64c-4.59,2.2-8.18,6-12,10.07-.64,5.32-4.83,7.81-7,9.09-1.06.63-2.08,1.33-3.1,2l-.93.63c-3,2.05-2.87,2.76-2.64,3.75a13.37,13.37,0,0,1,.21,3.87l0,8.18-7.38-1.35c-4.37-.8-7.54-2.65-9.42-5.49a10.55,10.55,0,0,1-1.07-2.11,45.14,45.14,0,0,0-8.94.26,14,14,0,0,0-6.78,3.45,14.52,14.52,0,0,0-1.75,3.82c-.38,1.07-.78,2.13-1.22,3.14l0,0a7.11,7.11,0,0,0,1.75-.24l13.27-8.86,3.52,4.86a10.34,10.34,0,0,1,1.93,8.67l5.08,1,.38,4.77c.07.84.16,1.67.26,2.49a41.83,41.83,0,0,1,.38,5.75c3.49.82,3.86.13,4.66-1.3,3-5.34,8.38-7.31,14-5.16a6.26,6.26,0,0,0,1.06.23,11.86,11.86,0,0,1,8.29,4.72,3,3,0,0,0,1-.07l2.08-3.25,4.27,1a15.1,15.1,0,0,1,10.8,9.19,4.23,4.23,0,0,0,.57,1c.05,0,.26,0,.59-.1l.84-.16,1.06,0a9.37,9.37,0,0,1,10.44,6.76l.44,1.37a55.85,55.85,0,0,1,1.91,6.89c4,1.7,8.44,2.34,14,2.11,3.09-.09,7.17,1,9,4.47,1.59,3.08,2.8,3.2,3.52,3.27l5.19.54.4,5.2c.48,6.23-2.72,10.31-4.84,13-.41.52-.82,1-1.2,1.58a6.28,6.28,0,0,0-1.11,2.06,53,53,0,0,0-1,9.48c.06,6.31-3,11.19-8.33,13.4a21.36,21.36,0,0,1-6.22,1.32,19.62,19.62,0,0,0-2.17.29c.15.49.35,1.06.45,1.31,1.79,4.86.85,9.46-2.78,13.67l-1.11,1.28a30.06,30.06,0,0,0-4.72,6.33c-2.65,5.66-7,8.37-11.13,10.08l.62.75-2.72,3.72.14.09a6.65,6.65,0,0,1,2.92,6.41c-.23,4.21-.23,4.21,2.45,7.84,3.24,4.42.2,10,.17,10.06Zm-123-173.66c-14.36,51,2.87,117.56,61,153.48a136.8,136.8,0,0,0,40.76,17,50.37,50.37,0,0,1-10.06-13.25c-1.75-3.29-3.58-7.74-2.3-13.09A5.52,5.52,0,0,0,205.3,352c-2.75-3-2.7-7.2-2.56-8.89s.42-3.45.72-5.22a9.76,9.76,0,0,1-2.3-7c.12-6.12.09-12.23,0-18.34-1.65-1-3.33-2-5-3l-3.6-2.12c-1.45-.85-4.47-2.64-4.68-6.45-.08-1.49-1.21-2.79-3.21-4.94-.56-.61-1.12-1.21-1.64-1.83-3.58-4.16-7.07-9.59-5.83-18.23.69-4.79,2.14-10.08,7.47-13.85l-1.12,0c-5.55-.21-9.55-2.34-12.23-6.52a12,12,0,0,0-10-5.94l-1.9-.13-3.71-2.73a9.42,9.42,0,0,1-2.14-.19c-.85-.19-1.69-.34-2.54-.5-5.55-1-13.94-2.58-17.16-12.31l0-.13-2.81-1.29a10,10,0,0,0-1-.38,11.94,11.94,0,0,1-6.09-3.85C121.32,224.69,118.18,219.79,117.47,213.67ZM222.93,369.48a36.88,36.88,0,0,0,3.13,3.83c-.07-.73-.1-1.52-.09-2.4ZM219.46,358a21.49,21.49,0,0,1-.47,2.68,3.61,3.61,0,0,0,.19,2.11l2.45-3.36Zm-4.28-13.7a18.38,18.38,0,0,1,3.85,7.21l5.52-2.66a27.3,27.3,0,0,1,3.36-1.51l1.63-.57c4.44-1.51,6.63-2.36,7.88-5a40.15,40.15,0,0,1,6.64-9.27l1-1.2a3.59,3.59,0,0,0,.65-.92c-1.05-2.76-3.49-9.38,1.88-14.64a13.72,13.72,0,0,1,6.34-3.41,30,30,0,0,1,3.84-.57,12.68,12.68,0,0,0,2.71-.45c.3-.12.61-.25.6-1.72a64.07,64.07,0,0,1,1.2-11.78,17.77,17.77,0,0,1,3.18-7.06c.51-.72,1-1.42,1.6-2.12l.83-1.08a18,18,0,0,1-5-5.18c-7.53.21-13.75-1-19.47-3.72a9.86,9.86,0,0,1-5.95-7.95,35.92,35.92,0,0,0-1.43-5.4c-6.17.71-11.07-2.33-13.71-8.4a4.87,4.87,0,0,0-.29-.59,13.6,13.6,0,0,1-6.14,1.3,12.35,12.35,0,0,1-10.17-4.83l-.63-.11a23.1,23.1,0,0,1-2.33-.53,15.55,15.55,0,0,1-6,5.7,34.25,34.25,0,0,1,.58,4.89c.18,3.05-1.46,7.32-4.85,9.2-1.62.9-2.4,1.72-3,5.84-.47,3.25.19,5.11,2.94,8.31.43.5.89,1,1.35,1.49,2.14,2.31,4.93,5.33,6,9.69l2.55,1.5c2.49,1.45,5,2.89,7.38,4.47,3.38,2.23,3.81,6.38,3.83,8.05.08,5.76.11,11.51,0,17.24l3.61.31-1.24,9.54c-.36,2-.71,3.9-.88,5.83A.26.26,0,0,1,215.18,344.33Zm135.93-10.4v0ZM200.36,300.32v0Zm61.2-20.27,0,0Zm-76.64-16.67a.93.93,0,0,0,0,.1S184.92,263.42,184.92,263.38Zm50.5-.12v0Zm101.75-6.95h0Zm-18.41-.76-.05,0ZM145.88,230.07c.58,1.53,1.4,2.27,3.67,2.91a11.35,11.35,0,0,1,0-9.63c.38-.82.69-1.7,1-2.58,1-2.67,2.17-6,4.8-8.53a26.45,26.45,0,0,1,13.35-6.79,58.54,58.54,0,0,1,12-.42c1.57.05,3.18.12,4.82.12h2.18a22.14,22.14,0,0,1,5.38-4.84l.89-.6c1.24-.85,2.48-1.69,3.76-2.46.25-.15.63-.37.94-.57,0-.21,0-.42.05-.61a23,23,0,0,1-4.11-.16l-6.56-.68.24-1.51a8.69,8.69,0,0,1-6.38-3.58,8.55,8.55,0,0,1-1.27-6.51l-1.82-.1,2.5-7.71c.07-.21.14-.42.22-.62h-.24l-3.94.07-8-16,22.2-4a10.38,10.38,0,0,1,0-1.48,10.59,10.59,0,0,1,5.48-8.57l.31-.17H180.18l.63.63-.68,4.49h0c-1.17,4.16-3.25,6.18-6.3,6.42-1.91.17-3.92.15-5.91.14H160.6l-1.32-12.24.38-.1a9.31,9.31,0,0,1-.27-1.95,11.7,11.7,0,0,1,.2-2.27l.06-.35-12.66.59,15.66-12.1c45.57-35.21,126.48-43.94,186.68,9.24l5.66,5-4.5,3.48,6.88-.29,2.84,2.2,8.44,9.52c-23.09-30.29-54.25-49-93-55.67-47.31-8.2-89.77,4.05-126.23,36.35a147.78,147.78,0,0,0-25.38,29l0,28.05a12,12,0,0,1-.11,2.44l0,.13a8.6,8.6,0,0,1,3.44,2.45l6-.54,2.09,2.34a6.32,6.32,0,0,1,2.1,4.5c.15,4.87,2.87,8.85,6.69,14C147.1,224.24,146.88,227.59,145.88,230.07Zm-.69,1.42,0,0Zm143.74-2.72.28-.13A1.84,1.84,0,0,0,288.94,228.77Zm-77.81-32.16s0,0,0,0S211.13,196.63,211.13,196.61ZM385,183.4l4.42,9.45Q387.39,188.08,385,183.4Zm-68.66,8.73h0Zm-1.23-.73,1.61,0a14.73,14.73,0,0,0,3.59-.17s.14-.28.3-.84c.07-.23.14-.45.22-.67h-6.69a11.3,11.3,0,0,0,.09,1.3l.71.35C315,191.5,315.05,191.4,315.11,191.4Zm25-1c-.32.15-.67.31-1,.44l1.39-.14Zm38.84-5,0-.18ZM208.4,183.67l.06.15c.46-.42.93-.82,1.41-1.21a3.82,3.82,0,0,0-.21-.34,4,4,0,0,0-.9-.93A9,9,0,0,1,208.4,183.67Zm142-10.78a11.19,11.19,0,0,1,5.8,1.39,32.54,32.54,0,0,1,6.49,5.4l1.51,1.48a7,7,0,0,1,1.58,2.27,12.31,12.31,0,0,1,4.87-2l1.18-.24v-.83l9.79-2.16,2.74,4.07c-.37-.71-.74-1.41-1.13-2.11h0a176.4,176.4,0,0,0-14.35-22.32l-1.25,3.45c-3.23,9-9.76,9.19-13.39,8.51a2,2,0,0,0-.32,0l.05.35H344c-1.94,0-3.82,0-5.71,0a16,16,0,0,1-7.13,7.21l-.38,1.67a10.3,10.3,0,0,1,4.55-.42L336,178l5.34-4.85,0-.48.47,0,1.78-1.61.73,1.73,3.25.16a8.42,8.42,0,0,0,1.23,0C349.28,172.91,349.83,172.89,350.43,172.89ZM208.12,177a13,13,0,0,1,5.73,2.64,35.55,35.55,0,0,1,3.79-2.12,14.11,14.11,0,0,0,2.68-2.79c.48-.57.95-1.14,1.43-1.68a14.28,14.28,0,0,1,2-1.85c0-.16,0-.34,0-.51.27-2.93,2.76-7,6.7-7.64l.74-9.08-1.5-.36a17,17,0,0,0,.07,2.3c.63,5.88-2.6,10.16-8.24,10.93-1.42.19-1.51.51-1.74,1.34a9.19,9.19,0,0,1-4.44,5.82,9.53,9.53,0,0,1-7.6.53l-.24-.07ZM194,167a16.52,16.52,0,0,1,3.54.39,9.32,9.32,0,0,1,5.74,3.75v-4.78l-.74-.2a21.58,21.58,0,0,1-6.87-3.2,10.44,10.44,0,0,1-3.53-4.75l-.12,4.62a19.47,19.47,0,0,1-.57,4.39A15.3,15.3,0,0,1,194,167ZM239.39,166l0,0Zm.59-.34.1.09A.1.1,0,0,0,240,165.62Zm-4.75-2.23a10.85,10.85,0,0,1,4.65,2.14,8.88,8.88,0,0,1,3.51-1.63,12.94,12.94,0,0,1-1.31-2.76l-1,.31Zm-18.05-8.61-1.46.79c.47-.2,1-.37,1.46-.52C217.18,155,217.17,154.88,217.17,154.79Zm-10.64-.47a21,21,0,0,0,2.18.35l4.29.66-1.07-3.91Zm20.8-1.17h0Zm115.39-1.35,0,0,4.84-1.67-.44-1.5c-1,.81-2,1.58-3.06,2.28C343.66,151.25,343.2,151.53,342.73,151.8Zm-113-.08h0Z"/><path class="cls-3" d="M319.54,161.39c1,.89,2,1.9,3.44,3.3-4.67,1.62-4.68,1.63-4.32,6,7.38.87,9.9.06,11.71-3.79-5.61-2.33-6.75-7.6-8-12.64-.64,0-.95,0-1.25.08-2.06.25-4.14.52-4.68,3.06S318.23,160.28,319.54,161.39Z"/><path class="cls-3" d="M323,177.27a43.68,43.68,0,0,1-5.06-.35l-5.08-.6-.41-5.1a14.73,14.73,0,0,1,.64-6.83,8.32,8.32,0,0,1-2.71-8.26c1.47-6.9,7.9-7.7,10-8l1.06-.09,5.26-.35,1.78,5.09c1.27,5.29,2,7.38,4.28,8.33l6.05,2.51L336,169.59C333.1,175.82,328.13,177.27,323,177.27Z"/><path class="cls-3" d="M316.6,165.64a4.14,4.14,0,0,0,1.29-3.52c-.16-.7-2.14-1.42-3.26-1.36-3.69.19-6.27,4-5.63,8.08C312.53,169.84,314.44,167.26,316.6,165.64Z"/><path class="cls-3" d="M310.53,175.32a11.87,11.87,0,0,1-3.23-.46l-3.85-1.09-.62-3.95A13.76,13.76,0,0,1,305.65,159a11.85,11.85,0,0,1,8.66-4.47c2.58-.1,8.49,1.21,9.66,6.16a10.32,10.32,0,0,1-3.63,10c-.31.23-.61.49-.92.76C317.83,172.77,314.84,175.32,310.53,175.32Zm2.33-14.68h0Z"/><path class="cls-3" d="M238.38,178.41a52.25,52.25,0,0,0-5,2.92,2.18,2.18,0,0,0,3.42,1.71c1.86-1,3.26-2.81,4.87-4.28A4.4,4.4,0,0,0,238.38,178.41Z"/><path class="cls-3" d="M235.44,189.63a8.32,8.32,0,0,1-4-1,8.49,8.49,0,0,1-4.35-6.74l-.35-3.93,5.07-3a32.26,32.26,0,0,1,4-2.23h0a10.33,10.33,0,0,1,8,.25l9.44,3.64-7.49,6.81c-.4.37-.79.76-1.17,1.16a20.08,20.08,0,0,1-5,4A9,9,0,0,1,235.44,189.63Zm5.45-5.5h0Z"/></svg>